<?xml version="1.0" encoding="UTF-8" standalone="no"?>
<!-- Created with Inkscape (http://www.inkscape.org/) -->

<svg
   xmlns:dc="http://purl.org/dc/elements/1.1/"
   xmlns:cc="http://creativecommons.org/ns#"
   xmlns:rdf="http://www.w3.org/1999/02/22-rdf-syntax-ns#"
   xmlns:svg="http://www.w3.org/2000/svg"
   xmlns="http://www.w3.org/2000/svg"
   xmlns:sodipodi="http://sodipodi.sourceforge.net/DTD/sodipodi-0.dtd"
   xmlns:inkscape="http://www.inkscape.org/namespaces/inkscape"
   version="1.0"
   width="320"
   height="265.45456"
   id="svg1903"
   sodipodi:docname="logo2.svg"
   inkscape:version="0.92.1 r15371">
  <metadata
     id="metadata18">
    <rdf:RDF>
      <cc:Work
         rdf:about="">
        <dc:format>image/svg+xml</dc:format>
        <dc:type
           rdf:resource="http://purl.org/dc/dcmitype/StillImage" />
        <dc:title></dc:title>
      </cc:Work>
    </rdf:RDF>
  </metadata>
  <sodipodi:namedview
     pagecolor="#ffffff"
     bordercolor="#666666"
     borderopacity="1"
     objecttolerance="10"
     gridtolerance="10"
     guidetolerance="10"
     inkscape:pageopacity="0"
     inkscape:pageshadow="2"
     inkscape:window-width="1227"
     inkscape:window-height="926"
     id="namedview16"
     showgrid="false"
     fit-margin-top="10"
     fit-margin-left="10"
     fit-margin-right="10"
     fit-margin-bottom="10"
     inkscape:zoom="0.48337649"
     inkscape:cx="-80.478761"
     inkscape:cy="328.61114"
     inkscape:window-x="1799"
     inkscape:window-y="582"
     inkscape:window-maximized="0"
     inkscape:current-layer="svg1903" />
  <defs
     id="defs1905" />
  <g
     transform="matrix(0.32014843,0,0,0.32014843,83.60933,-2.2907044)"
     id="layer1">
    <g
       transform="translate(925.8326,120.8762)"
       id="g3963">
      <g
         transform="matrix(2.914897,0,0,2.914897,-717.5904,128.5015)"
         style="fill:#000000;fill-opacity:1;fill-rule:nonzero;stroke:none;stroke-miterlimit:4"
         id="g3771">
        <g
           style="fill:#000000;fill-opacity:1"
           id="g3773">
          <path
             d="M 86.068,0 C 61.466,0 56.851,35.041 70.691,35.041 84.529,35.041 110.671,0 86.068,0 Z"
             style="fill:#000000;fill-opacity:1"
             id="path3775"
             inkscape:connector-curvature="0" />
          <path
             d="M 45.217,30.699 C 52.586,31.149 60.671,2.577 46.821,4.374 32.976,6.171 37.845,30.249 45.217,30.699 Z"
             style="fill:#000000;fill-opacity:1"
             id="path3777"
             inkscape:connector-curvature="0" />
          <path
             d="M 11.445,48.453 C 16.686,46.146 12.12,23.581 3.208,29.735 -5.7,35.89 6.204,50.759 11.445,48.453 Z"
             style="fill:#000000;fill-opacity:1"
             id="path3779"
             inkscape:connector-curvature="0" />
          <path
             d="M 26.212,36.642 C 32.451,35.37 32.793,9.778 21.667,14.369 10.539,18.961 19.978,37.916 26.212,36.642 Z"
             style="fill:#000000;fill-opacity:1"
             id="path3781"
             inkscape:connector-curvature="0" />
          <path
             d="m 58.791,93.913 c 1.107,8.454 -6.202,12.629 -13.36,7.179 C 22.644,83.743 83.16,75.088 79.171,51.386 75.86,31.712 15.495,37.769 8.621,68.553 3.968,89.374 27.774,118.26 52.614,118.26 c 12.22,0 26.315,-11.034 28.952,-25.012 C 83.58,82.589 57.867,86.86 58.791,93.913 Z"
             style="fill:#000000;fill-opacity:1"
             id="path3783"
             inkscape:connector-curvature="0" />
        </g>
      </g>
    </g>
  </g>
  <g
     id="cast"
     transform="matrix(0.53475936,0,0,0.53475936,10,-17.272727)">
    <path
       d="M 510,51 H 51 C 22.95,51 0,73.95 0,102 v 76.5 H 51 V 102 H 510 V 459 H 331.5 v 51 H 510 c 28.05,0 51,-22.95 51,-51 V 102 C 561,73.95 538.05,51 510,51 Z M 0,433.5 V 510 H 76.5 C 76.5,466.65 43.35,433.5 0,433.5 Z m 0,-102 v 51 c 71.4,0 127.5,56.1 127.5,127.5 h 51 C 178.5,410.55 99.45,331.5 0,331.5 Z m 0,-102 v 51 c 127.5,0 229.5,102 229.5,229.5 h 51 C 280.5,354.45 155.55,229.5 0,229.5 Z"
       id="path12"
       style="fill:#000000;fill-opacity:1"
       inkscape:connector-curvature="0" />
  </g>
</svg>
